<mxfile host="app.diagrams.net" agent="Mozilla/5.0 (Windows NT 10.0; Win64; x64) AppleWebKit/537.36 (KHTML, like Gecko) Chrome/135.0.0.0 Safari/537.36" version="26.2.14">
  <diagram name="Page-1" id="spYMfo7C8VDkyBsGKRN6">
    <mxGraphModel dx="868" dy="518" grid="1" gridSize="10" guides="1" tooltips="1" connect="1" arrows="1" fold="1" page="1" pageScale="1" pageWidth="827" pageHeight="1169" math="0" shadow="0">
      <root>
        <mxCell id="0" />
        <mxCell id="1" parent="0" />
        <mxCell id="drIio9Y409SWSWU5YO3m-18" style="edgeStyle=orthogonalEdgeStyle;rounded=0;orthogonalLoop=1;jettySize=auto;html=1;entryX=1;entryY=0.5;entryDx=0;entryDy=0;exitX=0.5;exitY=0.88;exitDx=0;exitDy=0;exitPerimeter=0;" edge="1" parent="1" source="drIio9Y409SWSWU5YO3m-2" target="drIio9Y409SWSWU5YO3m-17">
          <mxGeometry relative="1" as="geometry">
            <Array as="points">
              <mxPoint x="320" y="235" />
            </Array>
          </mxGeometry>
        </mxCell>
        <mxCell id="drIio9Y409SWSWU5YO3m-2" value="papers" style="strokeWidth=2;html=1;shape=mxgraph.flowchart.multi-document;whiteSpace=wrap;" vertex="1" parent="1">
          <mxGeometry x="276" y="130" width="88" height="60" as="geometry" />
        </mxCell>
        <mxCell id="drIio9Y409SWSWU5YO3m-6" value="additional metadata" style="shape=parallelogram;html=1;strokeWidth=2;perimeter=parallelogramPerimeter;whiteSpace=wrap;rounded=1;arcSize=12;size=0.23;" vertex="1" parent="1">
          <mxGeometry x="270" y="270" width="100" height="60" as="geometry" />
        </mxCell>
        <mxCell id="drIio9Y409SWSWU5YO3m-9" value="" style="edgeStyle=orthogonalEdgeStyle;rounded=0;orthogonalLoop=1;jettySize=auto;html=1;" edge="1" parent="1" source="drIio9Y409SWSWU5YO3m-7" target="drIio9Y409SWSWU5YO3m-6">
          <mxGeometry relative="1" as="geometry" />
        </mxCell>
        <mxCell id="drIio9Y409SWSWU5YO3m-7" value="OpenAlex" style="strokeWidth=2;html=1;shape=mxgraph.flowchart.database;whiteSpace=wrap;" vertex="1" parent="1">
          <mxGeometry x="41" y="270" width="60" height="60" as="geometry" />
        </mxCell>
        <mxCell id="drIio9Y409SWSWU5YO3m-15" value="" style="edgeStyle=orthogonalEdgeStyle;rounded=0;orthogonalLoop=1;jettySize=auto;html=1;" edge="1" parent="1" source="drIio9Y409SWSWU5YO3m-8" target="drIio9Y409SWSWU5YO3m-14">
          <mxGeometry relative="1" as="geometry" />
        </mxCell>
        <mxCell id="drIio9Y409SWSWU5YO3m-8" value="arXiv" style="strokeWidth=2;html=1;shape=mxgraph.flowchart.database;whiteSpace=wrap;" vertex="1" parent="1">
          <mxGeometry x="41" y="130" width="60" height="60" as="geometry" />
        </mxCell>
        <mxCell id="drIio9Y409SWSWU5YO3m-11" value="index" style="strokeWidth=2;html=1;shape=mxgraph.flowchart.database;whiteSpace=wrap;" vertex="1" parent="1">
          <mxGeometry x="430" y="205" width="60" height="60" as="geometry" />
        </mxCell>
        <mxCell id="drIio9Y409SWSWU5YO3m-16" value="" style="edgeStyle=orthogonalEdgeStyle;rounded=0;orthogonalLoop=1;jettySize=auto;html=1;" edge="1" parent="1" source="drIio9Y409SWSWU5YO3m-14" target="drIio9Y409SWSWU5YO3m-2">
          <mxGeometry relative="1" as="geometry" />
        </mxCell>
        <mxCell id="drIio9Y409SWSWU5YO3m-14" value="filtering" style="rounded=1;whiteSpace=wrap;html=1;absoluteArcSize=1;arcSize=14;strokeWidth=2;" vertex="1" parent="1">
          <mxGeometry x="140" y="135" width="90" height="50" as="geometry" />
        </mxCell>
        <mxCell id="drIio9Y409SWSWU5YO3m-17" value="searching&lt;div&gt;&lt;font style=&quot;font-size: 8px;&quot;&gt;via DOI OR title&lt;/font&gt;&lt;/div&gt;" style="rounded=1;whiteSpace=wrap;html=1;absoluteArcSize=1;arcSize=14;strokeWidth=2;" vertex="1" parent="1">
          <mxGeometry x="140" y="210" width="90" height="50" as="geometry" />
        </mxCell>
        <mxCell id="drIio9Y409SWSWU5YO3m-19" style="edgeStyle=orthogonalEdgeStyle;rounded=0;orthogonalLoop=1;jettySize=auto;html=1;entryX=0.5;entryY=0;entryDx=0;entryDy=0;entryPerimeter=0;" edge="1" parent="1" source="drIio9Y409SWSWU5YO3m-17" target="drIio9Y409SWSWU5YO3m-7">
          <mxGeometry relative="1" as="geometry" />
        </mxCell>
        <mxCell id="drIio9Y409SWSWU5YO3m-23" style="edgeStyle=orthogonalEdgeStyle;rounded=0;orthogonalLoop=1;jettySize=auto;html=1;entryX=0;entryY=0.5;entryDx=0;entryDy=0;entryPerimeter=0;" edge="1" parent="1" source="drIio9Y409SWSWU5YO3m-2" target="drIio9Y409SWSWU5YO3m-11">
          <mxGeometry relative="1" as="geometry">
            <Array as="points">
              <mxPoint x="400" y="160" />
              <mxPoint x="400" y="235" />
            </Array>
          </mxGeometry>
        </mxCell>
        <mxCell id="drIio9Y409SWSWU5YO3m-24" style="edgeStyle=orthogonalEdgeStyle;rounded=0;orthogonalLoop=1;jettySize=auto;html=1;entryX=0;entryY=0.5;entryDx=0;entryDy=0;entryPerimeter=0;" edge="1" parent="1" source="drIio9Y409SWSWU5YO3m-6" target="drIio9Y409SWSWU5YO3m-11">
          <mxGeometry relative="1" as="geometry" />
        </mxCell>
        <mxCell id="drIio9Y409SWSWU5YO3m-38" value="" style="shape=table;startSize=0;container=1;collapsible=0;childLayout=tableLayout;fontSize=16;" vertex="1" parent="1">
          <mxGeometry x="130" y="22" width="370" height="56.00000000000023" as="geometry" />
        </mxCell>
        <mxCell id="drIio9Y409SWSWU5YO3m-39" value="" style="shape=tableRow;horizontal=0;startSize=0;swimlaneHead=0;swimlaneBody=0;strokeColor=inherit;top=0;left=0;bottom=0;right=0;collapsible=0;dropTarget=0;fillColor=none;points=[[0,0.5],[1,0.5]];portConstraint=eastwest;fontSize=16;" vertex="1" parent="drIio9Y409SWSWU5YO3m-38">
          <mxGeometry width="370" height="28" as="geometry" />
        </mxCell>
        <mxCell id="drIio9Y409SWSWU5YO3m-40" value="&lt;font style=&quot;font-size: 12px;&quot;&gt;id&lt;/font&gt;" style="shape=partialRectangle;html=1;whiteSpace=wrap;connectable=0;strokeColor=inherit;overflow=hidden;fillColor=none;top=0;left=0;bottom=0;right=0;pointerEvents=1;fontSize=16;" vertex="1" parent="drIio9Y409SWSWU5YO3m-39">
          <mxGeometry width="30" height="28" as="geometry">
            <mxRectangle width="30" height="28" as="alternateBounds" />
          </mxGeometry>
        </mxCell>
        <mxCell id="drIio9Y409SWSWU5YO3m-41" value="&lt;font style=&quot;font-size: 12px;&quot;&gt;title&lt;/font&gt;" style="shape=partialRectangle;html=1;whiteSpace=wrap;connectable=0;strokeColor=inherit;overflow=hidden;fillColor=none;top=0;left=0;bottom=0;right=0;pointerEvents=1;fontSize=16;" vertex="1" parent="drIio9Y409SWSWU5YO3m-39">
          <mxGeometry x="30" width="40" height="28" as="geometry">
            <mxRectangle width="40" height="28" as="alternateBounds" />
          </mxGeometry>
        </mxCell>
        <mxCell id="drIio9Y409SWSWU5YO3m-42" value="&lt;font style=&quot;font-size: 12px;&quot;&gt;summary&lt;/font&gt;" style="shape=partialRectangle;html=1;whiteSpace=wrap;connectable=0;strokeColor=inherit;overflow=hidden;fillColor=none;top=0;left=0;bottom=0;right=0;pointerEvents=1;fontSize=16;" vertex="1" parent="drIio9Y409SWSWU5YO3m-39">
          <mxGeometry x="70" width="60" height="28" as="geometry">
            <mxRectangle width="60" height="28" as="alternateBounds" />
          </mxGeometry>
        </mxCell>
        <mxCell id="drIio9Y409SWSWU5YO3m-61" value="&lt;font style=&quot;font-size: 12px;&quot;&gt;published&lt;/font&gt;" style="shape=partialRectangle;html=1;whiteSpace=wrap;connectable=0;strokeColor=inherit;overflow=hidden;fillColor=none;top=0;left=0;bottom=0;right=0;pointerEvents=1;fontSize=16;" vertex="1" parent="drIio9Y409SWSWU5YO3m-39">
          <mxGeometry x="130" width="60" height="28" as="geometry">
            <mxRectangle width="60" height="28" as="alternateBounds" />
          </mxGeometry>
        </mxCell>
        <mxCell id="drIio9Y409SWSWU5YO3m-59" value="&lt;font style=&quot;font-size: 12px;&quot;&gt;updated&lt;/font&gt;" style="shape=partialRectangle;html=1;whiteSpace=wrap;connectable=0;strokeColor=inherit;overflow=hidden;fillColor=none;top=0;left=0;bottom=0;right=0;pointerEvents=1;fontSize=16;" vertex="1" parent="drIio9Y409SWSWU5YO3m-39">
          <mxGeometry x="190" width="50" height="28" as="geometry">
            <mxRectangle width="50" height="28" as="alternateBounds" />
          </mxGeometry>
        </mxCell>
        <mxCell id="drIio9Y409SWSWU5YO3m-63" value="&lt;font style=&quot;font-size: 12px;&quot;&gt;authors&lt;/font&gt;" style="shape=partialRectangle;html=1;whiteSpace=wrap;connectable=0;strokeColor=inherit;overflow=hidden;fillColor=none;top=0;left=0;bottom=0;right=0;pointerEvents=1;fontSize=16;" vertex="1" parent="drIio9Y409SWSWU5YO3m-39">
          <mxGeometry x="240" width="50" height="28" as="geometry">
            <mxRectangle width="50" height="28" as="alternateBounds" />
          </mxGeometry>
        </mxCell>
        <mxCell id="drIio9Y409SWSWU5YO3m-65" value="&lt;font style=&quot;font-size: 12px;&quot;&gt;link&lt;/font&gt;" style="shape=partialRectangle;html=1;whiteSpace=wrap;connectable=0;strokeColor=inherit;overflow=hidden;fillColor=none;top=0;left=0;bottom=0;right=0;pointerEvents=1;fontSize=16;" vertex="1" parent="drIio9Y409SWSWU5YO3m-39">
          <mxGeometry x="290" width="30" height="28" as="geometry">
            <mxRectangle width="30" height="28" as="alternateBounds" />
          </mxGeometry>
        </mxCell>
        <mxCell id="drIio9Y409SWSWU5YO3m-67" value="&lt;font style=&quot;font-size: 12px;&quot;&gt;pdf link&lt;/font&gt;" style="shape=partialRectangle;html=1;whiteSpace=wrap;connectable=0;strokeColor=inherit;overflow=hidden;fillColor=none;top=0;left=0;bottom=0;right=0;pointerEvents=1;fontSize=16;" vertex="1" parent="drIio9Y409SWSWU5YO3m-39">
          <mxGeometry x="320" width="50" height="28" as="geometry">
            <mxRectangle width="50" height="28" as="alternateBounds" />
          </mxGeometry>
        </mxCell>
        <mxCell id="drIio9Y409SWSWU5YO3m-43" value="" style="shape=tableRow;horizontal=0;startSize=0;swimlaneHead=0;swimlaneBody=0;strokeColor=inherit;top=0;left=0;bottom=0;right=0;collapsible=0;dropTarget=0;fillColor=none;points=[[0,0.5],[1,0.5]];portConstraint=eastwest;fontSize=16;" vertex="1" parent="drIio9Y409SWSWU5YO3m-38">
          <mxGeometry y="28" width="370" height="28" as="geometry" />
        </mxCell>
        <mxCell id="drIio9Y409SWSWU5YO3m-44" value="&lt;font style=&quot;font-size: 10px;&quot;&gt;int&lt;/font&gt;" style="shape=partialRectangle;html=1;whiteSpace=wrap;connectable=0;strokeColor=inherit;overflow=hidden;fillColor=none;top=0;left=0;bottom=0;right=0;pointerEvents=1;fontSize=16;" vertex="1" parent="drIio9Y409SWSWU5YO3m-43">
          <mxGeometry width="30" height="28" as="geometry">
            <mxRectangle width="30" height="28" as="alternateBounds" />
          </mxGeometry>
        </mxCell>
        <mxCell id="drIio9Y409SWSWU5YO3m-45" value="&lt;font style=&quot;font-size: 10px;&quot;&gt;str&lt;/font&gt;" style="shape=partialRectangle;html=1;whiteSpace=wrap;connectable=0;strokeColor=inherit;overflow=hidden;fillColor=none;top=0;left=0;bottom=0;right=0;pointerEvents=1;fontSize=16;" vertex="1" parent="drIio9Y409SWSWU5YO3m-43">
          <mxGeometry x="30" width="40" height="28" as="geometry">
            <mxRectangle width="40" height="28" as="alternateBounds" />
          </mxGeometry>
        </mxCell>
        <mxCell id="drIio9Y409SWSWU5YO3m-46" value="&lt;font style=&quot;font-size: 10px;&quot;&gt;str&lt;/font&gt;" style="shape=partialRectangle;html=1;whiteSpace=wrap;connectable=0;strokeColor=inherit;overflow=hidden;fillColor=none;top=0;left=0;bottom=0;right=0;pointerEvents=1;fontSize=16;" vertex="1" parent="drIio9Y409SWSWU5YO3m-43">
          <mxGeometry x="70" width="60" height="28" as="geometry">
            <mxRectangle width="60" height="28" as="alternateBounds" />
          </mxGeometry>
        </mxCell>
        <mxCell id="drIio9Y409SWSWU5YO3m-62" value="&lt;font style=&quot;font-size: 10px;&quot;&gt;str&lt;/font&gt;" style="shape=partialRectangle;html=1;whiteSpace=wrap;connectable=0;strokeColor=inherit;overflow=hidden;fillColor=none;top=0;left=0;bottom=0;right=0;pointerEvents=1;fontSize=16;" vertex="1" parent="drIio9Y409SWSWU5YO3m-43">
          <mxGeometry x="130" width="60" height="28" as="geometry">
            <mxRectangle width="60" height="28" as="alternateBounds" />
          </mxGeometry>
        </mxCell>
        <mxCell id="drIio9Y409SWSWU5YO3m-60" value="&lt;font style=&quot;font-size: 10px;&quot;&gt;&lt;font style=&quot;&quot;&gt;st&lt;/font&gt;r&lt;/font&gt;" style="shape=partialRectangle;html=1;whiteSpace=wrap;connectable=0;strokeColor=inherit;overflow=hidden;fillColor=none;top=0;left=0;bottom=0;right=0;pointerEvents=1;fontSize=16;" vertex="1" parent="drIio9Y409SWSWU5YO3m-43">
          <mxGeometry x="190" width="50" height="28" as="geometry">
            <mxRectangle width="50" height="28" as="alternateBounds" />
          </mxGeometry>
        </mxCell>
        <mxCell id="drIio9Y409SWSWU5YO3m-64" value="&lt;font style=&quot;font-size: 10px;&quot;&gt;list(str)&lt;/font&gt;" style="shape=partialRectangle;html=1;whiteSpace=wrap;connectable=0;strokeColor=inherit;overflow=hidden;fillColor=none;top=0;left=0;bottom=0;right=0;pointerEvents=1;fontSize=16;" vertex="1" parent="drIio9Y409SWSWU5YO3m-43">
          <mxGeometry x="240" width="50" height="28" as="geometry">
            <mxRectangle width="50" height="28" as="alternateBounds" />
          </mxGeometry>
        </mxCell>
        <mxCell id="drIio9Y409SWSWU5YO3m-66" value="&lt;font style=&quot;font-size: 10px;&quot;&gt;str&lt;/font&gt;" style="shape=partialRectangle;html=1;whiteSpace=wrap;connectable=0;strokeColor=inherit;overflow=hidden;fillColor=none;top=0;left=0;bottom=0;right=0;pointerEvents=1;fontSize=16;" vertex="1" parent="drIio9Y409SWSWU5YO3m-43">
          <mxGeometry x="290" width="30" height="28" as="geometry">
            <mxRectangle width="30" height="28" as="alternateBounds" />
          </mxGeometry>
        </mxCell>
        <mxCell id="drIio9Y409SWSWU5YO3m-68" value="&lt;font style=&quot;font-size: 10px;&quot;&gt;str&lt;/font&gt;" style="shape=partialRectangle;html=1;whiteSpace=wrap;connectable=0;strokeColor=inherit;overflow=hidden;fillColor=none;top=0;left=0;bottom=0;right=0;pointerEvents=1;fontSize=16;" vertex="1" parent="drIio9Y409SWSWU5YO3m-43">
          <mxGeometry x="320" width="50" height="28" as="geometry">
            <mxRectangle width="50" height="28" as="alternateBounds" />
          </mxGeometry>
        </mxCell>
        <mxCell id="drIio9Y409SWSWU5YO3m-70" style="edgeStyle=orthogonalEdgeStyle;rounded=0;orthogonalLoop=1;jettySize=auto;html=1;entryX=0.514;entryY=1;entryDx=0;entryDy=0;entryPerimeter=0;" edge="1" parent="1" source="drIio9Y409SWSWU5YO3m-2" target="drIio9Y409SWSWU5YO3m-43">
          <mxGeometry relative="1" as="geometry" />
        </mxCell>
        <mxCell id="drIio9Y409SWSWU5YO3m-71" value="" style="shape=table;startSize=0;container=1;collapsible=0;childLayout=tableLayout;fontSize=16;" vertex="1" parent="1">
          <mxGeometry x="44" y="360" width="552" height="80" as="geometry" />
        </mxCell>
        <mxCell id="drIio9Y409SWSWU5YO3m-72" value="" style="shape=tableRow;horizontal=0;startSize=0;swimlaneHead=0;swimlaneBody=0;strokeColor=inherit;top=0;left=0;bottom=0;right=0;collapsible=0;dropTarget=0;fillColor=none;points=[[0,0.5],[1,0.5]];portConstraint=eastwest;fontSize=16;" vertex="1" parent="drIio9Y409SWSWU5YO3m-71">
          <mxGeometry width="552" height="40" as="geometry" />
        </mxCell>
        <mxCell id="drIio9Y409SWSWU5YO3m-73" value="&lt;font style=&quot;font-size: 12px;&quot;&gt;institutions&lt;/font&gt;" style="shape=partialRectangle;html=1;whiteSpace=wrap;connectable=0;strokeColor=inherit;overflow=hidden;fillColor=none;top=0;left=0;bottom=0;right=0;pointerEvents=1;fontSize=16;" vertex="1" parent="drIio9Y409SWSWU5YO3m-72">
          <mxGeometry width="60" height="40" as="geometry">
            <mxRectangle width="60" height="40" as="alternateBounds" />
          </mxGeometry>
        </mxCell>
        <mxCell id="drIio9Y409SWSWU5YO3m-74" value="&lt;font style=&quot;font-size: 12px;&quot;&gt;citations&lt;/font&gt;" style="shape=partialRectangle;html=1;whiteSpace=wrap;connectable=0;strokeColor=inherit;overflow=hidden;fillColor=none;top=0;left=0;bottom=0;right=0;pointerEvents=1;fontSize=16;" vertex="1" parent="drIio9Y409SWSWU5YO3m-72">
          <mxGeometry x="60" width="52" height="40" as="geometry">
            <mxRectangle width="52" height="40" as="alternateBounds" />
          </mxGeometry>
        </mxCell>
        <mxCell id="drIio9Y409SWSWU5YO3m-75" value="&lt;font style=&quot;font-size: 12px;&quot;&gt;cited by&lt;/font&gt;" style="shape=partialRectangle;html=1;whiteSpace=wrap;connectable=0;strokeColor=inherit;overflow=hidden;fillColor=none;top=0;left=0;bottom=0;right=0;pointerEvents=1;fontSize=16;" vertex="1" parent="drIio9Y409SWSWU5YO3m-72">
          <mxGeometry x="112" width="50" height="40" as="geometry">
            <mxRectangle width="50" height="40" as="alternateBounds" />
          </mxGeometry>
        </mxCell>
        <mxCell id="drIio9Y409SWSWU5YO3m-84" value="&lt;font style=&quot;font-size: 12px;&quot;&gt;relation&lt;/font&gt;" style="shape=partialRectangle;html=1;whiteSpace=wrap;connectable=0;strokeColor=inherit;overflow=hidden;fillColor=none;top=0;left=0;bottom=0;right=0;pointerEvents=1;fontSize=16;" vertex="1" parent="drIio9Y409SWSWU5YO3m-72">
          <mxGeometry x="162" width="50" height="40" as="geometry">
            <mxRectangle width="50" height="40" as="alternateBounds" />
          </mxGeometry>
        </mxCell>
        <mxCell id="drIio9Y409SWSWU5YO3m-87" value="&lt;font style=&quot;font-size: 12px;&quot;&gt;FWCI&lt;/font&gt;" style="shape=partialRectangle;html=1;whiteSpace=wrap;connectable=0;strokeColor=inherit;overflow=hidden;fillColor=none;top=0;left=0;bottom=0;right=0;pointerEvents=1;fontSize=16;" vertex="1" parent="drIio9Y409SWSWU5YO3m-72">
          <mxGeometry x="212" width="50" height="40" as="geometry">
            <mxRectangle width="50" height="40" as="alternateBounds" />
          </mxGeometry>
        </mxCell>
        <mxCell id="drIio9Y409SWSWU5YO3m-90" value="&lt;font style=&quot;font-size: 12px;&quot;&gt;topics&lt;/font&gt;" style="shape=partialRectangle;html=1;whiteSpace=wrap;connectable=0;strokeColor=inherit;overflow=hidden;fillColor=none;top=0;left=0;bottom=0;right=0;pointerEvents=1;fontSize=16;" vertex="1" parent="drIio9Y409SWSWU5YO3m-72">
          <mxGeometry x="262" width="50" height="40" as="geometry">
            <mxRectangle width="50" height="40" as="alternateBounds" />
          </mxGeometry>
        </mxCell>
        <mxCell id="drIio9Y409SWSWU5YO3m-93" value="&lt;font style=&quot;font-size: 12px;&quot;&gt;subtopics&lt;/font&gt;" style="shape=partialRectangle;html=1;whiteSpace=wrap;connectable=0;strokeColor=inherit;overflow=hidden;fillColor=none;top=0;left=0;bottom=0;right=0;pointerEvents=1;fontSize=16;" vertex="1" parent="drIio9Y409SWSWU5YO3m-72">
          <mxGeometry x="312" width="60" height="40" as="geometry">
            <mxRectangle width="60" height="40" as="alternateBounds" />
          </mxGeometry>
        </mxCell>
        <mxCell id="drIio9Y409SWSWU5YO3m-96" value="&lt;font style=&quot;font-size: 12px;&quot;&gt;field&lt;/font&gt;" style="shape=partialRectangle;html=1;whiteSpace=wrap;connectable=0;strokeColor=inherit;overflow=hidden;fillColor=none;top=0;left=0;bottom=0;right=0;pointerEvents=1;fontSize=16;" vertex="1" parent="drIio9Y409SWSWU5YO3m-72">
          <mxGeometry x="372" width="50" height="40" as="geometry">
            <mxRectangle width="50" height="40" as="alternateBounds" />
          </mxGeometry>
        </mxCell>
        <mxCell id="drIio9Y409SWSWU5YO3m-99" value="&lt;font style=&quot;font-size: 12px;&quot;&gt;domain&lt;/font&gt;" style="shape=partialRectangle;html=1;whiteSpace=wrap;connectable=0;strokeColor=inherit;overflow=hidden;fillColor=none;top=0;left=0;bottom=0;right=0;pointerEvents=1;fontSize=16;" vertex="1" parent="drIio9Y409SWSWU5YO3m-72">
          <mxGeometry x="422" width="50" height="40" as="geometry">
            <mxRectangle width="50" height="40" as="alternateBounds" />
          </mxGeometry>
        </mxCell>
        <mxCell id="drIio9Y409SWSWU5YO3m-102" value="&lt;font style=&quot;font-size: 12px;&quot;&gt;open access status&lt;/font&gt;" style="shape=partialRectangle;html=1;whiteSpace=wrap;connectable=0;strokeColor=inherit;overflow=hidden;fillColor=none;top=0;left=0;bottom=0;right=0;pointerEvents=1;fontSize=16;" vertex="1" parent="drIio9Y409SWSWU5YO3m-72">
          <mxGeometry x="472" width="80" height="40" as="geometry">
            <mxRectangle width="80" height="40" as="alternateBounds" />
          </mxGeometry>
        </mxCell>
        <mxCell id="drIio9Y409SWSWU5YO3m-76" value="" style="shape=tableRow;horizontal=0;startSize=0;swimlaneHead=0;swimlaneBody=0;strokeColor=inherit;top=0;left=0;bottom=0;right=0;collapsible=0;dropTarget=0;fillColor=none;points=[[0,0.5],[1,0.5]];portConstraint=eastwest;fontSize=16;" vertex="1" parent="drIio9Y409SWSWU5YO3m-71">
          <mxGeometry y="40" width="552" height="40" as="geometry" />
        </mxCell>
        <mxCell id="drIio9Y409SWSWU5YO3m-77" value="" style="shape=partialRectangle;html=1;whiteSpace=wrap;connectable=0;strokeColor=inherit;overflow=hidden;fillColor=none;top=0;left=0;bottom=0;right=0;pointerEvents=1;fontSize=16;" vertex="1" parent="drIio9Y409SWSWU5YO3m-76">
          <mxGeometry width="60" height="40" as="geometry">
            <mxRectangle width="60" height="40" as="alternateBounds" />
          </mxGeometry>
        </mxCell>
        <mxCell id="drIio9Y409SWSWU5YO3m-78" value="" style="shape=partialRectangle;html=1;whiteSpace=wrap;connectable=0;strokeColor=inherit;overflow=hidden;fillColor=none;top=0;left=0;bottom=0;right=0;pointerEvents=1;fontSize=16;" vertex="1" parent="drIio9Y409SWSWU5YO3m-76">
          <mxGeometry x="60" width="52" height="40" as="geometry">
            <mxRectangle width="52" height="40" as="alternateBounds" />
          </mxGeometry>
        </mxCell>
        <mxCell id="drIio9Y409SWSWU5YO3m-79" value="" style="shape=partialRectangle;html=1;whiteSpace=wrap;connectable=0;strokeColor=inherit;overflow=hidden;fillColor=none;top=0;left=0;bottom=0;right=0;pointerEvents=1;fontSize=16;" vertex="1" parent="drIio9Y409SWSWU5YO3m-76">
          <mxGeometry x="112" width="50" height="40" as="geometry">
            <mxRectangle width="50" height="40" as="alternateBounds" />
          </mxGeometry>
        </mxCell>
        <mxCell id="drIio9Y409SWSWU5YO3m-85" style="shape=partialRectangle;html=1;whiteSpace=wrap;connectable=0;strokeColor=inherit;overflow=hidden;fillColor=none;top=0;left=0;bottom=0;right=0;pointerEvents=1;fontSize=16;" vertex="1" parent="drIio9Y409SWSWU5YO3m-76">
          <mxGeometry x="162" width="50" height="40" as="geometry">
            <mxRectangle width="50" height="40" as="alternateBounds" />
          </mxGeometry>
        </mxCell>
        <mxCell id="drIio9Y409SWSWU5YO3m-88" style="shape=partialRectangle;html=1;whiteSpace=wrap;connectable=0;strokeColor=inherit;overflow=hidden;fillColor=none;top=0;left=0;bottom=0;right=0;pointerEvents=1;fontSize=16;" vertex="1" parent="drIio9Y409SWSWU5YO3m-76">
          <mxGeometry x="212" width="50" height="40" as="geometry">
            <mxRectangle width="50" height="40" as="alternateBounds" />
          </mxGeometry>
        </mxCell>
        <mxCell id="drIio9Y409SWSWU5YO3m-91" value="" style="shape=partialRectangle;html=1;whiteSpace=wrap;connectable=0;strokeColor=inherit;overflow=hidden;fillColor=none;top=0;left=0;bottom=0;right=0;pointerEvents=1;fontSize=16;" vertex="1" parent="drIio9Y409SWSWU5YO3m-76">
          <mxGeometry x="262" width="50" height="40" as="geometry">
            <mxRectangle width="50" height="40" as="alternateBounds" />
          </mxGeometry>
        </mxCell>
        <mxCell id="drIio9Y409SWSWU5YO3m-94" value="" style="shape=partialRectangle;html=1;whiteSpace=wrap;connectable=0;strokeColor=inherit;overflow=hidden;fillColor=none;top=0;left=0;bottom=0;right=0;pointerEvents=1;fontSize=16;" vertex="1" parent="drIio9Y409SWSWU5YO3m-76">
          <mxGeometry x="312" width="60" height="40" as="geometry">
            <mxRectangle width="60" height="40" as="alternateBounds" />
          </mxGeometry>
        </mxCell>
        <mxCell id="drIio9Y409SWSWU5YO3m-97" value="" style="shape=partialRectangle;html=1;whiteSpace=wrap;connectable=0;strokeColor=inherit;overflow=hidden;fillColor=none;top=0;left=0;bottom=0;right=0;pointerEvents=1;fontSize=16;" vertex="1" parent="drIio9Y409SWSWU5YO3m-76">
          <mxGeometry x="372" width="50" height="40" as="geometry">
            <mxRectangle width="50" height="40" as="alternateBounds" />
          </mxGeometry>
        </mxCell>
        <mxCell id="drIio9Y409SWSWU5YO3m-100" style="shape=partialRectangle;html=1;whiteSpace=wrap;connectable=0;strokeColor=inherit;overflow=hidden;fillColor=none;top=0;left=0;bottom=0;right=0;pointerEvents=1;fontSize=16;" vertex="1" parent="drIio9Y409SWSWU5YO3m-76">
          <mxGeometry x="422" width="50" height="40" as="geometry">
            <mxRectangle width="50" height="40" as="alternateBounds" />
          </mxGeometry>
        </mxCell>
        <mxCell id="drIio9Y409SWSWU5YO3m-103" style="shape=partialRectangle;html=1;whiteSpace=wrap;connectable=0;strokeColor=inherit;overflow=hidden;fillColor=none;top=0;left=0;bottom=0;right=0;pointerEvents=1;fontSize=16;" vertex="1" parent="drIio9Y409SWSWU5YO3m-76">
          <mxGeometry x="472" width="80" height="40" as="geometry">
            <mxRectangle width="80" height="40" as="alternateBounds" />
          </mxGeometry>
        </mxCell>
        <mxCell id="drIio9Y409SWSWU5YO3m-105" style="edgeStyle=orthogonalEdgeStyle;rounded=0;orthogonalLoop=1;jettySize=auto;html=1;entryX=0.5;entryY=0;entryDx=0;entryDy=0;entryPerimeter=0;" edge="1" parent="1" source="drIio9Y409SWSWU5YO3m-6" target="drIio9Y409SWSWU5YO3m-72">
          <mxGeometry relative="1" as="geometry" />
        </mxCell>
      </root>
    </mxGraphModel>
  </diagram>
</mxfile>
